<svg aria-hidden="true" style="position: absolute; width: 0; height: 0; overflow: hidden;" version="1.1" xmlns="http://www.w3.org/2000/svg" xmlns:xlink="http://www.w3.org/1999/xlink">
<defs>
<symbol id="icon-close" viewBox="0 0 32 32">
<path d="M20.312 16l10.803-10.803c0.546-0.546 0.884-1.301 0.884-2.134s-0.338-1.588-0.884-2.134l-0.043-0.043c-0.546-0.546-1.301-0.884-2.134-0.884s-1.588 0.338-2.134 0.884l-10.803 10.803-10.803-10.803c-0.546-0.546-1.301-0.884-2.134-0.884s-1.588 0.338-2.134 0.884l-0.043 0.043c-0.546 0.546-0.884 1.301-0.884 2.134s0.338 1.588 0.884 2.134l10.803 10.803-10.803 10.803c-0.546 0.546-0.884 1.301-0.884 2.134s0.338 1.588 0.884 2.134l0.043 0.043c0.546 0.546 1.301 0.884 2.134 0.884s1.588-0.338 2.134-0.884l10.803-10.803 10.803 10.803c0.546 0.546 1.301 0.884 2.134 0.884s1.588-0.338 2.134-0.884l0.043-0.043c0.546-0.546 0.884-1.301 0.884-2.134s-0.338-1.588-0.884-2.134v0z"></path>
</symbol>
</defs>
</svg>
